<?xml version="1.0" encoding="utf-8"?>
<!-- Generator: Adobe Illustrator 19.0.0, SVG Export Plug-In . SVG Version: 6.00 Build 0)  -->
<svg version="1.1" id="Social_Icons" xmlns="http://www.w3.org/2000/svg" xmlns:xlink="http://www.w3.org/1999/xlink" x="0px"
	 y="0px" viewBox="-241 333 128 128" style="enable-background:new -241 333 128 128;" xml:space="preserve">
<style type="text/css">
	.st0{fill:#FFFFFF;}
</style>
<path id="Google_Plus_1_" class="st0" d="M-200.3,388.9v16.1c0,0,15.6,0,22,0c-3.4,10.5-8.8,16.1-22,16.1
	c-13.3,0-23.7-10.8-23.7-24.2s10.4-24.2,23.7-24.2c7.1,0,11.6,2.5,15.8,5.9c3.3-3.4,3.1-3.8,11.6-11.9c-7.2-6.6-16.8-10.6-27.4-10.6
	c-22.5,0-40.7,18.2-40.7,40.7c0,22.5,18.2,40.7,40.7,40.7c33.6,0,41.8-29.3,39-48.8C-161.3,388.9-200.3,388.9-200.3,388.9z
	 M-127.1,389.7v-14.1h-10.1v14.1h-14.5v10.1h14.5v14.5h10.1v-14.5h14.1v-10.1H-127.1z"/>
</svg>
