<?xml version="1.0" encoding="utf-8"?>
<!-- Generator: Adobe Illustrator 19.0.0, SVG Export Plug-In . SVG Version: 6.00 Build 0)  -->
<svg version="1.1" id="Capa_1" xmlns="http://www.w3.org/2000/svg" xmlns:xlink="http://www.w3.org/1999/xlink" x="0px" y="0px"
	 viewBox="0 0 18.9 22.1" style="enable-background:new 0 0 18.9 22.1;" xml:space="preserve">
<style type="text/css">
	.st0{fill:#C6472F;}
</style>
<path class="st0" d="M17.3,11.1c-0.3,0-0.5,0.2-0.5,0.5v8.6h-5.2v-5.4c0-0.3-0.2-0.5-0.5-0.5H7.4c-0.3,0-0.5,0.2-0.5,0.5v4.3
	c0,0.3,0.2,0.5,0.5,0.5c0.3,0,0.5-0.2,0.5-0.5v-3.8h2.8v4.9h-9V8.4l7.6-6.1L17,8.5c0.2,0.2,0.5,0.1,0.7-0.1s0.1-0.5-0.1-0.7L9.6,1.3
	C9.4,1.1,9.2,1.1,9,1.3L0.9,7.7C0.8,7.8,0.7,8,0.7,8.1v12.6c0,0.3,0.2,0.5,0.5,0.5h16.1c0.3,0,0.5-0.2,0.5-0.5v-9.1
	C17.8,11.3,17.6,11.1,17.3,11.1"/>
</svg>
