<?xml version="1.0" encoding="utf-8"?>
<!-- Generator: Adobe Illustrator 19.0.0, SVG Export Plug-In . SVG Version: 6.00 Build 0)  -->
<svg version="1.1" id="Capa_1" xmlns="http://www.w3.org/2000/svg" xmlns:xlink="http://www.w3.org/1999/xlink" x="0px" y="0px"
	 viewBox="0 0 26.9 19.8" style="enable-background:new 0 0 26.9 19.8;" xml:space="preserve">
<style type="text/css">
	.st0{fill:#FFFFFF;}
</style>
<path class="st0" d="M21.3,14.9c-0.1,0-0.2,0-0.3-0.1l-4.6-4.4c-0.2-0.2-0.2-0.4,0-0.6c0.2-0.2,0.4-0.2,0.6,0l4.6,4.4
	c0.2,0.2,0.2,0.4,0,0.6C21.5,14.8,21.4,14.9,21.3,14.9"/>
<path class="st0" d="M5.8,14.9c-0.1,0-0.2,0-0.3-0.1c-0.2-0.2-0.1-0.4,0-0.6l4.6-4.4c0.2-0.2,0.4-0.1,0.6,0c0.2,0.2,0.1,0.4,0,0.6
	l-4.6,4.4C6,14.8,5.9,14.9,5.8,14.9"/>
<path class="st0" d="M24.1,18.9h-21c-1.1,0-2-0.9-2-2V3.2c0-1.1,0.9-2,2-2h21c1.1,0,2,0.9,2,2v13.7C26.1,18,25.2,18.9,24.1,18.9
	 M3.1,1.9c-0.7,0-1.2,0.5-1.2,1.2v13.7c0,0.7,0.5,1.2,1.2,1.2h21c0.7,0,1.2-0.5,1.2-1.2V3.2c0-0.7-0.5-1.2-1.2-1.2H3.1z"/>
<path class="st0" d="M13.6,12.1c-0.5,0-1.1-0.2-1.5-0.5l-10.4-9c-0.2-0.1-0.2-0.4,0-0.6c0.1-0.2,0.4-0.2,0.6,0l10.4,9
	c0.5,0.4,1.4,0.4,1.9,0l10.3-9c0.2-0.1,0.4-0.1,0.6,0c0.1,0.2,0.1,0.4,0,0.6l-10.3,9C14.7,11.9,14.1,12.1,13.6,12.1"/>
</svg>
