<?xml version="1.0" encoding="utf-8"?>
<!-- Generator: Adobe Illustrator 19.0.0, SVG Export Plug-In . SVG Version: 6.00 Build 0)  -->
<svg version="1.1" id="Capa_1" xmlns="http://www.w3.org/2000/svg" xmlns:xlink="http://www.w3.org/1999/xlink" x="0px" y="0px"
	 viewBox="0 0 20.8 20.6" style="enable-background:new 0 0 20.8 20.6;" xml:space="preserve">
<style type="text/css">
	.st0{fill:#C6472F;}
</style>
<path id="XMLID_290_" class="st0" d="M16.7,14.1c-0.2-0.2-0.4-0.2-0.6,0c-0.2,0.2-0.2,0.4,0,0.6l0.8,0.8c0.2,0.2,0.3,0.4,0.3,0.7
	c0,0.3-0.1,0.5-0.3,0.7l0,0c-0.2,0.2-0.4,0.3-0.7,0.3s-0.5-0.1-0.7-0.3l-0.8-0.8c-0.1-0.1-0.4-0.2-0.5-0.1c-0.7,0.5-1.6,0.8-2.4,1
	c-0.2,0-0.3,0.2-0.3,0.4v1.1c0,0.6-0.5,1-1,1h0c-0.6,0-1-0.4-1-1v-1.1c0-0.2-0.1-0.4-0.3-0.4c-0.9-0.2-1.7-0.5-2.4-1
	c-0.2-0.1-0.4-0.1-0.5,0.1l-0.8,0.8c-0.2,0.2-0.4,0.3-0.7,0.3S4.1,17.1,4,16.9l0,0c-0.2-0.2-0.3-0.4-0.3-0.7c0-0.3,0.1-0.5,0.3-0.7
	l0.8-0.8c0.1-0.1,0.2-0.4,0.1-0.5c-0.5-0.7-0.8-1.6-1-2.4c0-0.2-0.2-0.3-0.4-0.3H2.3c-0.6,0-1-0.5-1-1v0c0-0.6,0.5-1,1-1h1.1
	c0.2,0,0.4-0.1,0.4-0.3c0.2-0.9,0.5-1.7,1-2.4c0.1-0.2,0.1-0.4-0.1-0.5L3.9,5.3C3.7,5.1,3.6,4.9,3.6,4.6c0-0.3,0.1-0.5,0.3-0.7l0,0
	c0.2-0.2,0.4-0.3,0.7-0.3s0.5,0.1,0.7,0.3l0.8,0.8c0.2,0.2,0.4,0.2,0.6,0c0.2-0.2,0.2-0.4,0-0.6L5.9,3.3C5.6,3,5.1,2.8,4.7,2.8
	C4.2,2.8,3.7,3,3.4,3.3l0,0C3,3.7,2.8,4.1,2.8,4.6c0,0.5,0.2,0.9,0.5,1.3l0.6,0.6C3.5,7.1,3.2,7.8,3,8.5H2.3c-1,0-1.8,0.8-1.8,1.8v0
	c0,1,0.8,1.8,1.8,1.8H3c0.2,0.7,0.5,1.4,0.9,2.1l-0.6,0.6c-0.3,0.3-0.5,0.8-0.5,1.3c0,0.5,0.2,0.9,0.5,1.3l0,0
	C3.7,17.8,4.2,18,4.7,18c0.5,0,0.9-0.2,1.3-0.5l0.6-0.6c0.7,0.4,1.4,0.7,2.1,0.9v0.8c0,1,0.8,1.8,1.8,1.8h0c1,0,1.8-0.8,1.8-1.8
	v-0.8c0.7-0.2,1.4-0.5,2.1-0.9l0.6,0.6c0.3,0.3,0.8,0.5,1.3,0.5c0.5,0,0.9-0.2,1.3-0.5l0,0c0.3-0.3,0.5-0.8,0.5-1.3
	c0-0.5-0.2-0.9-0.5-1.3L16.7,14.1z"/>
<path id="XMLID_289_" class="st0" d="M18.6,8.5h-0.8c-0.2-0.7-0.5-1.4-0.9-2.1l0.6-0.6c0.7-0.7,0.7-1.9,0-2.6l0,0
	c-0.3-0.3-0.8-0.5-1.3-0.5c-0.5,0-0.9,0.2-1.3,0.5l-0.6,0.6C13.7,3.5,13,3.2,12.3,3V2.2c0-1-0.8-1.8-1.8-1.8h0c-1,0-1.8,0.8-1.8,1.8
	v1.1c0,0.2,0.2,0.4,0.4,0.4c0.2,0,0.4-0.2,0.4-0.4V2.2c0-0.6,0.5-1,1-1h0c0.6,0,1,0.5,1,1v1.1c0,0.2,0.1,0.4,0.3,0.4
	c0.9,0.2,1.7,0.5,2.4,1c0.2,0.1,0.4,0.1,0.5-0.1l0.8-0.8c0.2-0.2,0.4-0.3,0.7-0.3s0.5,0.1,0.7,0.3l0,0c0.2,0.2,0.3,0.4,0.3,0.7
	s-0.1,0.5-0.3,0.7l-0.8,0.8C16,6.2,16,6.5,16.1,6.6c0.5,0.7,0.8,1.6,1,2.4c0,0.2,0.2,0.3,0.4,0.3h1.1c0.6,0,1,0.5,1,1v0
	c0,0.6-0.5,1-1,1h-1.1c-0.2,0-0.4,0.2-0.4,0.4c0,0.2,0.2,0.4,0.4,0.4h1.1c1,0,1.8-0.8,1.8-1.8v0C20.4,9.4,19.6,8.5,18.6,8.5"/>
<path id="XMLID_288_" class="st0" d="M10.4,11.9c-0.4,0-0.7-0.1-1-0.3c-0.2-0.1-0.4-0.1-0.6,0.1c-0.1,0.2-0.1,0.4,0.1,0.6
	c0.4,0.3,0.9,0.5,1.5,0.5c1.3,0,2.3-1.1,2.3-2.3c0-1.3-1.1-2.3-2.3-2.3c-1.3,0-2.3,1.1-2.3,2.3c0,0.2,0.2,0.4,0.4,0.4
	c0.2,0,0.4-0.2,0.4-0.4c0-0.8,0.7-1.5,1.5-1.5c0.8,0,1.5,0.7,1.5,1.5C12,11.2,11.3,11.9,10.4,11.9"/>
</svg>
